<?xml version="1.0" encoding="UTF-8" standalone="no"?>
<!-- Created with Inkscape (http://www.inkscape.org/) -->

<svg
   xmlns:dc="http://purl.org/dc/elements/1.1/"
   xmlns:cc="http://creativecommons.org/ns#"
   xmlns:rdf="http://www.w3.org/1999/02/22-rdf-syntax-ns#"
   xmlns:svg="http://www.w3.org/2000/svg"
   xmlns="http://www.w3.org/2000/svg"
   xmlns:sodipodi="http://sodipodi.sourceforge.net/DTD/sodipodi-0.dtd"
   xmlns:inkscape="http://www.inkscape.org/namespaces/inkscape"
   width="34.581467mm"
   height="12.07225mm"
   viewBox="0 0 122.53276 42.77569"
   id="svg6030"
   version="1.1"
   inkscape:version="0.91 r13725"
   sodipodi:docname="fig1a.svg">
  <defs
     id="defs6032">
    <clipPath
       clipPathUnits="userSpaceOnUse"
       id="clipPath282">
      <path
         d="m 0,0 288,0 0,117.733 -288,0 L 0,0 Z"
         id="path284"
         inkscape:connector-curvature="0" />
    </clipPath>
    <clipPath
       clipPathUnits="userSpaceOnUse"
       id="clipPath290">
      <path
         d="m 0,117.733 288,0 L 288,0 0,0 0,117.733 Z"
         id="path292"
         inkscape:connector-curvature="0" />
    </clipPath>
  </defs>
  <sodipodi:namedview
     id="base"
     pagecolor="#ffffff"
     bordercolor="#666666"
     borderopacity="1.0"
     inkscape:pageopacity="0.0"
     inkscape:pageshadow="2"
     inkscape:zoom="1.4"
     inkscape:cx="51.229859"
     inkscape:cy="-71.070788"
     inkscape:document-units="px"
     inkscape:current-layer="layer1"
     showgrid="false"
     fit-margin-top="0"
     fit-margin-left="0"
     fit-margin-right="0"
     fit-margin-bottom="0"
     inkscape:window-width="529"
     inkscape:window-height="864"
     inkscape:window-x="1067"
     inkscape:window-y="16"
     inkscape:window-maximized="0" />
  <metadata
     id="metadata6035">
    <rdf:RDF>
      <cc:Work
         rdf:about="">
        <dc:format>image/svg+xml</dc:format>
        <dc:type
           rdf:resource="http://purl.org/dc/dcmitype/StillImage" />
        <dc:title></dc:title>
      </cc:Work>
    </rdf:RDF>
  </metadata>
  <g
     inkscape:label="Layer 1"
     inkscape:groupmode="layer"
     id="layer1"
     transform="translate(-213.01934,-225.26007)">
    <g
       id="g276"
       transform="matrix(0.50851825,0,0,-0.50851825,197.12143,282.31048)">
      <g
         id="g278">
        <g
           id="g280"
           clip-path="url(#clipPath282)">
          <g
             id="g286">
            <g
               id="g288"
               clip-path="url(#clipPath290)">
              <g
                 id="g294"
                 transform="translate(48.5122,36.6992)">
                <path
                   d="m 0,0 c 0,-4.488 -3.75,-8.128 -8.374,-8.128 -4.625,0 -8.375,3.64 -8.375,8.128 0,4.489 3.75,8.128 8.375,8.128 C -3.75,8.128 0,4.489 0,0"
                   style="fill:#3c49a6;fill-opacity:1;fill-rule:nonzero;stroke:none"
                   id="path296"
                   inkscape:connector-curvature="0" />
              </g>
              <g
                 id="g298"
                 transform="translate(48.5122,36.6992)">
                <path
                   d="m 0,0 c 0,-4.488 -3.75,-8.128 -8.374,-8.128 -4.625,0 -8.375,3.64 -8.375,8.128 0,4.489 3.75,8.128 8.375,8.128 C -3.75,8.128 0,4.489 0,0 Z"
                   style="fill:none;stroke:#231f20;stroke-width:1;stroke-linecap:butt;stroke-linejoin:miter;stroke-miterlimit:10;stroke-dasharray:none;stroke-opacity:1"
                   id="path300"
                   inkscape:connector-curvature="0" />
              </g>
              <g
                 id="g302"
                 transform="translate(94.876,37.1621)">
                <path
                   d="m 0,0 c 0,-4.488 -3.749,-8.128 -8.374,-8.128 -4.625,0 -8.374,3.64 -8.374,8.128 0,4.488 3.749,8.128 8.374,8.128 C -3.749,8.128 0,4.488 0,0"
                   style="fill:#3c49a6;fill-opacity:1;fill-rule:nonzero;stroke:none"
                   id="path304"
                   inkscape:connector-curvature="0" />
              </g>
              <g
                 id="g306"
                 transform="translate(94.876,37.1621)">
                <path
                   d="m 0,0 c 0,-4.488 -3.749,-8.128 -8.374,-8.128 -4.625,0 -8.374,3.64 -8.374,8.128 0,4.488 3.749,8.128 8.374,8.128 C -3.749,8.128 0,4.488 0,0 Z"
                   style="fill:none;stroke:#231f20;stroke-width:1;stroke-linecap:butt;stroke-linejoin:miter;stroke-miterlimit:10;stroke-dasharray:none;stroke-opacity:1"
                   id="path308"
                   inkscape:connector-curvature="0" />
              </g>
              <g
                 id="g310"
                 transform="translate(135.7637,37.1621)">
                <path
                   d="m 0,0 c 0,-4.488 -3.749,-8.128 -8.374,-8.128 -4.625,0 -8.374,3.64 -8.374,8.128 0,4.488 3.749,8.128 8.374,8.128 C -3.749,8.128 0,4.488 0,0"
                   style="fill:#3c49a6;fill-opacity:1;fill-rule:nonzero;stroke:none"
                   id="path312"
                   inkscape:connector-curvature="0" />
              </g>
              <g
                 id="g314"
                 transform="translate(135.7637,37.1621)">
                <path
                   d="m 0,0 c 0,-4.488 -3.749,-8.128 -8.374,-8.128 -4.625,0 -8.374,3.64 -8.374,8.128 0,4.488 3.749,8.128 8.374,8.128 C -3.749,8.128 0,4.488 0,0 Z"
                   style="fill:none;stroke:#231f20;stroke-width:1;stroke-linecap:butt;stroke-linejoin:miter;stroke-miterlimit:10;stroke-dasharray:none;stroke-opacity:1"
                   id="path316"
                   inkscape:connector-curvature="0" />
              </g>
              <g
                 id="g318"
                 transform="translate(183.5459,37.1621)">
                <path
                   d="m 0,0 c 0,-4.488 -3.749,-8.128 -8.374,-8.128 -4.625,0 -8.374,3.64 -8.374,8.128 0,4.488 3.749,8.128 8.374,8.128 C -3.749,8.128 0,4.488 0,0"
                   style="fill:#3c49a6;fill-opacity:1;fill-rule:nonzero;stroke:none"
                   id="path320"
                   inkscape:connector-curvature="0" />
              </g>
              <g
                 id="g322"
                 transform="translate(183.5459,37.1621)">
                <path
                   d="m 0,0 c 0,-4.488 -3.749,-8.128 -8.374,-8.128 -4.625,0 -8.374,3.64 -8.374,8.128 0,4.488 3.749,8.128 8.374,8.128 C -3.749,8.128 0,4.488 0,0 Z"
                   style="fill:none;stroke:#231f20;stroke-width:1;stroke-linecap:butt;stroke-linejoin:miter;stroke-miterlimit:10;stroke-dasharray:none;stroke-opacity:1"
                   id="path324"
                   inkscape:connector-curvature="0" />
              </g>
              <g
                 id="g326"
                 transform="translate(271.7236,36.6992)">
                <path
                   d="m 0,0 c 0,-4.488 -3.749,-8.128 -8.374,-8.128 -4.625,0 -8.374,3.64 -8.374,8.128 0,4.488 3.749,8.128 8.374,8.128 C -3.749,8.128 0,4.488 0,0"
                   style="fill:#3c49a6;fill-opacity:1;fill-rule:nonzero;stroke:none"
                   id="path328"
                   inkscape:connector-curvature="0" />
              </g>
              <g
                 id="g330"
                 transform="translate(271.7236,36.6992)">
                <path
                   d="m 0,0 c 0,-4.488 -3.749,-8.128 -8.374,-8.128 -4.625,0 -8.374,3.64 -8.374,8.128 0,4.488 3.749,8.128 8.374,8.128 C -3.749,8.128 0,4.488 0,0 Z"
                   style="fill:none;stroke:#231f20;stroke-width:1;stroke-linecap:butt;stroke-linejoin:miter;stroke-miterlimit:10;stroke-dasharray:none;stroke-opacity:1"
                   id="path332"
                   inkscape:connector-curvature="0" />
              </g>
              <g
                 id="g334"
                 transform="translate(209.9209,36.6992)">
                <path
                   d="m 0,0 c 0,-0.59 -0.605,-1.068 -1.354,-1.068 -0.75,0 -1.355,0.478 -1.355,1.068 0,0.589 0.605,1.067 1.355,1.067 C -0.605,1.067 0,0.589 0,0"
                   style="fill:#311414;fill-opacity:1;fill-rule:nonzero;stroke:none"
                   id="path336"
                   inkscape:connector-curvature="0" />
              </g>
              <g
                 id="g338"
                 transform="translate(209.9209,36.6992)">
                <path
                   d="m 0,0 c 0,-0.59 -0.605,-1.068 -1.354,-1.068 -0.75,0 -1.355,0.478 -1.355,1.068 0,0.589 0.605,1.067 1.355,1.067 C -0.605,1.067 0,0.589 0,0 Z"
                   style="fill:none;stroke:#231f20;stroke-width:1;stroke-linecap:butt;stroke-linejoin:miter;stroke-miterlimit:10;stroke-dasharray:none;stroke-opacity:1"
                   id="path340"
                   inkscape:connector-curvature="0" />
              </g>
              <g
                 id="g342"
                 transform="translate(224.5762,36.7676)">
                <path
                   d="m 0,0 c 0,-0.59 -0.605,-1.068 -1.354,-1.068 -0.75,0 -1.355,0.478 -1.355,1.068 0,0.588 0.605,1.067 1.355,1.067 C -0.605,1.067 0,0.588 0,0"
                   style="fill:#311414;fill-opacity:1;fill-rule:nonzero;stroke:none"
                   id="path344"
                   inkscape:connector-curvature="0" />
              </g>
              <g
                 id="g346"
                 transform="translate(224.5762,36.7676)">
                <path
                   d="m 0,0 c 0,-0.59 -0.605,-1.068 -1.354,-1.068 -0.75,0 -1.355,0.478 -1.355,1.068 0,0.588 0.605,1.067 1.355,1.067 C -0.605,1.067 0,0.588 0,0 Z"
                   style="fill:none;stroke:#231f20;stroke-width:1;stroke-linecap:butt;stroke-linejoin:miter;stroke-miterlimit:10;stroke-dasharray:none;stroke-opacity:1"
                   id="path348"
                   inkscape:connector-curvature="0" />
              </g>
              <g
                 id="g350"
                 transform="translate(243.2949,37.1626)">
                <path
                   d="m 0,0 c 0,-0.59 -0.605,-1.069 -1.354,-1.069 -0.75,0 -1.355,0.479 -1.355,1.069 0,0.589 0.605,1.067 1.355,1.067 C -0.605,1.067 0,0.589 0,0"
                   style="fill:#311414;fill-opacity:1;fill-rule:nonzero;stroke:none"
                   id="path352"
                   inkscape:connector-curvature="0" />
              </g>
              <g
                 id="g354"
                 transform="translate(243.2949,37.1626)">
                <path
                   d="m 0,0 c 0,-0.59 -0.605,-1.069 -1.354,-1.069 -0.75,0 -1.355,0.479 -1.355,1.069 0,0.589 0.605,1.067 1.355,1.067 C -0.605,1.067 0,0.589 0,0 Z"
                   style="fill:none;stroke:#231f20;stroke-width:1;stroke-linecap:butt;stroke-linejoin:miter;stroke-miterlimit:10;stroke-dasharray:none;stroke-opacity:1"
                   id="path356"
                   inkscape:connector-curvature="0" />
              </g>
              <g
                 id="g358"
                 transform="translate(161.25,103.5615)">
                <path
                   d="m 0,0 c 0,-4.488 -3.749,-8.128 -8.373,-8.128 -4.625,0 -8.375,3.64 -8.375,8.128 0,4.488 3.75,8.128 8.375,8.128 C -3.749,8.128 0,4.488 0,0"
                   style="fill:#eb1c24;fill-opacity:1;fill-rule:nonzero;stroke:none"
                   id="path360"
                   inkscape:connector-curvature="0" />
              </g>
              <g
                 id="g362"
                 transform="translate(161.25,103.5615)">
                <path
                   d="m 0,0 c 0,-4.488 -3.749,-8.128 -8.373,-8.128 -4.625,0 -8.375,3.64 -8.375,8.128 0,4.488 3.75,8.128 8.375,8.128 C -3.749,8.128 0,4.488 0,0 Z"
                   style="fill:none;stroke:#231f20;stroke-width:1;stroke-linecap:butt;stroke-linejoin:miter;stroke-miterlimit:10;stroke-dasharray:none;stroke-opacity:1"
                   id="path364"
                   inkscape:connector-curvature="0" />
              </g>
              <g
                 id="g366"
                 transform="translate(94.876,37.1621)">
                <path
                   d="M 0,0 24.14,0"
                   style="fill:none;stroke:#231f20;stroke-width:1;stroke-linecap:butt;stroke-linejoin:miter;stroke-miterlimit:10;stroke-dasharray:none;stroke-opacity:1"
                   id="path368"
                   inkscape:connector-curvature="0" />
              </g>
              <g
                 id="g370"
                 transform="translate(135.7637,37.1621)">
                <path
                   d="M 0,0 31.034,0"
                   style="fill:none;stroke:#231f20;stroke-width:1;stroke-linecap:butt;stroke-linejoin:miter;stroke-miterlimit:10;stroke-dasharray:none;stroke-opacity:1"
                   id="path372"
                   inkscape:connector-curvature="0" />
              </g>
              <g
                 id="g374"
                 transform="translate(48.5122,36.6987)">
                <path
                   d="M 0,0 29.616,0"
                   style="fill:none;stroke:#231f20;stroke-width:1;stroke-linecap:butt;stroke-linejoin:miter;stroke-miterlimit:10;stroke-dasharray:none;stroke-opacity:1"
                   id="path376"
                   inkscape:connector-curvature="0" />
              </g>
              <g
                 id="g378"
                 transform="translate(183.5469,37.1621)">
                <path
                   d="M 0,0 19.581,0"
                   style="fill:none;stroke:#231f20;stroke-width:1;stroke-linecap:butt;stroke-linejoin:miter;stroke-miterlimit:10;stroke-dasharray:none;stroke-opacity:1"
                   id="path380"
                   inkscape:connector-curvature="0" />
              </g>
              <g
                 id="g382"
                 transform="translate(43.3701,44.1982)">
                <path
                   d="M 0,0 109.507,51.235"
                   style="fill:none;stroke:#231f20;stroke-width:1;stroke-linecap:butt;stroke-linejoin:miter;stroke-miterlimit:10;stroke-dasharray:none;stroke-opacity:1"
                   id="path384"
                   inkscape:connector-curvature="0" />
              </g>
              <g
                 id="g386"
                 transform="translate(90.6816,44.1982)">
                <path
                   d="M 0,0 62.195,51.235"
                   style="fill:none;stroke:#231f20;stroke-width:1;stroke-linecap:butt;stroke-linejoin:miter;stroke-miterlimit:10;stroke-dasharray:none;stroke-opacity:1"
                   id="path388"
                   inkscape:connector-curvature="0" />
              </g>
              <g
                 id="g390"
                 transform="translate(127.3901,45.29)">
                <path
                   d="M 0,0 25.487,50.144"
                   style="fill:none;stroke:#231f20;stroke-width:1;stroke-linecap:butt;stroke-linejoin:miter;stroke-miterlimit:10;stroke-dasharray:none;stroke-opacity:1"
                   id="path392"
                   inkscape:connector-curvature="0" />
              </g>
              <g
                 id="g394"
                 transform="translate(175.1719,45.29)">
                <path
                   d="M 0,0 -22.295,50.144"
                   style="fill:none;stroke:#231f20;stroke-width:1;stroke-linecap:butt;stroke-linejoin:miter;stroke-miterlimit:10;stroke-dasharray:none;stroke-opacity:1"
                   id="path396"
                   inkscape:connector-curvature="0" />
              </g>
              <g
                 id="g398"
                 transform="translate(263.3496,44.8271)">
                <path
                   d="M 0,0 -110.473,50.606"
                   style="fill:none;stroke:#231f20;stroke-width:1;stroke-linecap:butt;stroke-linejoin:miter;stroke-miterlimit:10;stroke-dasharray:none;stroke-opacity:1"
                   id="path400"
                   inkscape:connector-curvature="0" />
              </g>
            </g>
          </g>
        </g>
      </g>
    </g>
  </g>
</svg>
