<?xml version="1.0" encoding="UTF-8" standalone="no"?>
<!-- Created with Inkscape (http://www.inkscape.org/) -->

<svg
   xmlns:dc="http://purl.org/dc/elements/1.1/"
   xmlns:cc="http://creativecommons.org/ns#"
   xmlns:rdf="http://www.w3.org/1999/02/22-rdf-syntax-ns#"
   xmlns:svg="http://www.w3.org/2000/svg"
   xmlns="http://www.w3.org/2000/svg"
   xmlns:sodipodi="http://sodipodi.sourceforge.net/DTD/sodipodi-0.dtd"
   xmlns:inkscape="http://www.inkscape.org/namespaces/inkscape"
   width="54.192513mm"
   height="36.626781mm"
   viewBox="0 0 192.02071 129.77993"
   id="svg5701"
   version="1.1"
   inkscape:version="0.91 r13725"
   sodipodi:docname="fig7b.svg">
  <defs
     id="defs5703">
    <clipPath
       clipPathUnits="userSpaceOnUse"
       id="clipPath4304">
      <path
         d="M 0,0 360,0 360,252 0,252 0,0 Z"
         id="path4306"
         inkscape:connector-curvature="0" />
    </clipPath>
  </defs>
  <sodipodi:namedview
     id="base"
     pagecolor="#ffffff"
     bordercolor="#666666"
     borderopacity="1.0"
     inkscape:pageopacity="0.0"
     inkscape:pageshadow="2"
     inkscape:zoom="0.35"
     inkscape:cx="-197.56108"
     inkscape:cy="-55.11003"
     inkscape:document-units="px"
     inkscape:current-layer="layer1"
     showgrid="false"
     fit-margin-top="0"
     fit-margin-left="0"
     fit-margin-right="0"
     fit-margin-bottom="0"
     inkscape:window-width="796"
     inkscape:window-height="864"
     inkscape:window-x="800"
     inkscape:window-y="16"
     inkscape:window-maximized="0" />
  <metadata
     id="metadata5706">
    <rdf:RDF>
      <cc:Work
         rdf:about="">
        <dc:format>image/svg+xml</dc:format>
        <dc:type
           rdf:resource="http://purl.org/dc/dcmitype/StillImage" />
        <dc:title></dc:title>
      </cc:Work>
    </rdf:RDF>
  </metadata>
  <g
     inkscape:label="Layer 1"
     inkscape:groupmode="layer"
     id="layer1"
     transform="translate(-129.70393,-347.47224)">
    <g
       transform="matrix(0.53964612,0,0,-0.53964612,127.67615,478.06781)"
       id="g4300"
       inkscape:export-xdpi="360"
       inkscape:export-ydpi="360">
      <g
         id="g4302"
         clip-path="url(#clipPath4304)">
        <g
           id="g4308"
           transform="scale(0.1,0.1)">
          <path
             d="m 603,288 31.5,0 m 2803,0 -31.5,0"
             style="fill:none;stroke:#000000;stroke-width:5;stroke-linecap:butt;stroke-linejoin:miter;stroke-miterlimit:3.79999995;stroke-dasharray:none;stroke-opacity:1"
             id="path4310"
             inkscape:connector-curvature="0" />
          <g
             id="g4312"
             transform="scale(10,10)">
            <text
               transform="matrix(1,0,0,-1,49.8961,25.8)"
               style="font-variant:normal;font-weight:normal;font-size:9px;font-family:Helvetica;-inkscape-font-specification:Helvetica;writing-mode:lr-tb;fill:#000000;fill-opacity:1;fill-rule:nonzero;stroke:none"
               id="text4314">
              <tspan
                 x="0"
                 y="0"
                 id="tspan4316">0</tspan>
            </text>
          </g>
          <path
             d="m 603,484 31.5,0 m 2803,0 -31.5,0"
             style="fill:none;stroke:#000000;stroke-width:5;stroke-linecap:butt;stroke-linejoin:miter;stroke-miterlimit:3.79999995;stroke-dasharray:none;stroke-opacity:1"
             id="path4318"
             inkscape:connector-curvature="0" />
          <g
             id="g4320"
             transform="scale(10,10)">
            <text
               transform="matrix(1,0,0,-1,27.3786,45.4)"
               style="font-variant:normal;font-weight:normal;font-size:9px;font-family:Helvetica;-inkscape-font-specification:Helvetica;writing-mode:lr-tb;fill:#000000;fill-opacity:1;fill-rule:nonzero;stroke:none"
               id="text4322">
              <tspan
                 x="0 5.0040002 7.506 12.51 17.514 22.518"
                 y="0"
                 sodipodi:role="line"
                 id="tspan4324">0.0005</tspan>
            </text>
          </g>
          <path
             d="m 603,680.5 31.5,0 m 2803,0 -31.5,0"
             style="fill:none;stroke:#000000;stroke-width:5;stroke-linecap:butt;stroke-linejoin:miter;stroke-miterlimit:3.79999995;stroke-dasharray:none;stroke-opacity:1"
             id="path4326"
             inkscape:connector-curvature="0" />
          <g
             id="g4328"
             transform="scale(10,10)">
            <text
               transform="matrix(1,0,0,-1,32.3825,65.05)"
               style="font-variant:normal;font-weight:normal;font-size:9px;font-family:Helvetica;-inkscape-font-specification:Helvetica;writing-mode:lr-tb;fill:#000000;fill-opacity:1;fill-rule:nonzero;stroke:none"
               id="text4330">
              <tspan
                 x="0 5.0040002 7.506 12.51 17.514"
                 y="0"
                 sodipodi:role="line"
                 id="tspan4332">0.001</tspan>
            </text>
          </g>
          <path
             d="m 603,876.5 31.5,0 m 2803,0 -31.5,0"
             style="fill:none;stroke:#000000;stroke-width:5;stroke-linecap:butt;stroke-linejoin:miter;stroke-miterlimit:3.79999995;stroke-dasharray:none;stroke-opacity:1"
             id="path4334"
             inkscape:connector-curvature="0" />
          <g
             id="g4336"
             transform="scale(10,10)">
            <text
               transform="matrix(1,0,0,-1,27.3786,84.65)"
               style="font-variant:normal;font-weight:normal;font-size:9px;font-family:Helvetica;-inkscape-font-specification:Helvetica;writing-mode:lr-tb;fill:#000000;fill-opacity:1;fill-rule:nonzero;stroke:none"
               id="text4338">
              <tspan
                 x="0 5.0040002 7.506 12.51 17.514 22.518"
                 y="0"
                 sodipodi:role="line"
                 id="tspan4340">0.0015</tspan>
            </text>
          </g>
          <path
             d="m 603,1072.5 31.5,0 m 2803,0 -31.5,0"
             style="fill:none;stroke:#000000;stroke-width:5;stroke-linecap:butt;stroke-linejoin:miter;stroke-miterlimit:3.79999995;stroke-dasharray:none;stroke-opacity:1"
             id="path4342"
             inkscape:connector-curvature="0" />
          <g
             id="g4344"
             transform="scale(10,10)">
            <text
               transform="matrix(1,0,0,-1,32.3825,104.25)"
               style="font-variant:normal;font-weight:normal;font-size:9px;font-family:Helvetica;-inkscape-font-specification:Helvetica;writing-mode:lr-tb;fill:#000000;fill-opacity:1;fill-rule:nonzero;stroke:none"
               id="text4346">
              <tspan
                 x="0 5.0040002 7.506 12.51 17.514"
                 y="0"
                 sodipodi:role="line"
                 id="tspan4348">0.002</tspan>
            </text>
          </g>
          <path
             d="m 603,1269 31.5,0 m 2803,0 -31.5,0"
             style="fill:none;stroke:#000000;stroke-width:5;stroke-linecap:butt;stroke-linejoin:miter;stroke-miterlimit:3.79999995;stroke-dasharray:none;stroke-opacity:1"
             id="path4350"
             inkscape:connector-curvature="0" />
          <g
             id="g4352"
             transform="scale(10,10)">
            <text
               transform="matrix(1,0,0,-1,27.3786,123.9)"
               style="font-variant:normal;font-weight:normal;font-size:9px;font-family:Helvetica;-inkscape-font-specification:Helvetica;writing-mode:lr-tb;fill:#000000;fill-opacity:1;fill-rule:nonzero;stroke:none"
               id="text4354">
              <tspan
                 x="0 5.0040002 7.506 12.51 17.514 22.518"
                 y="0"
                 sodipodi:role="line"
                 id="tspan4356">0.0025</tspan>
            </text>
          </g>
          <path
             d="m 603,1465 31.5,0 m 2803,0 -31.5,0"
             style="fill:none;stroke:#000000;stroke-width:5;stroke-linecap:butt;stroke-linejoin:miter;stroke-miterlimit:3.79999995;stroke-dasharray:none;stroke-opacity:1"
             id="path4358"
             inkscape:connector-curvature="0" />
          <g
             id="g4360"
             transform="scale(10,10)">
            <text
               transform="matrix(1,0,0,-1,32.3825,143.5)"
               style="font-variant:normal;font-weight:normal;font-size:9px;font-family:Helvetica;-inkscape-font-specification:Helvetica;writing-mode:lr-tb;fill:#000000;fill-opacity:1;fill-rule:nonzero;stroke:none"
               id="text4362">
              <tspan
                 x="0 5.0040002 7.506 12.51 17.514"
                 y="0"
                 sodipodi:role="line"
                 id="tspan4364">0.003</tspan>
            </text>
          </g>
          <path
             d="m 603,1661 31.5,0 m 2803,0 -31.5,0"
             style="fill:none;stroke:#000000;stroke-width:5;stroke-linecap:butt;stroke-linejoin:miter;stroke-miterlimit:3.79999995;stroke-dasharray:none;stroke-opacity:1"
             id="path4366"
             inkscape:connector-curvature="0" />
          <g
             id="g4368"
             transform="scale(10,10)">
            <text
               transform="matrix(1,0,0,-1,27.3786,163.1)"
               style="font-variant:normal;font-weight:normal;font-size:9px;font-family:Helvetica;-inkscape-font-specification:Helvetica;writing-mode:lr-tb;fill:#000000;fill-opacity:1;fill-rule:nonzero;stroke:none"
               id="text4370">
              <tspan
                 x="0 5.0040002 7.506 12.51 17.514 22.518"
                 y="0"
                 sodipodi:role="line"
                 id="tspan4372">0.0035</tspan>
            </text>
          </g>
          <path
             d="m 603,1857 31.5,0 m 2803,0 -31.5,0"
             style="fill:none;stroke:#000000;stroke-width:5;stroke-linecap:butt;stroke-linejoin:miter;stroke-miterlimit:3.79999995;stroke-dasharray:none;stroke-opacity:1"
             id="path4374"
             inkscape:connector-curvature="0" />
          <g
             id="g4376"
             transform="scale(10,10)">
            <text
               transform="matrix(1,0,0,-1,32.3825,182.7)"
               style="font-variant:normal;font-weight:normal;font-size:9px;font-family:Helvetica;-inkscape-font-specification:Helvetica;writing-mode:lr-tb;fill:#000000;fill-opacity:1;fill-rule:nonzero;stroke:none"
               id="text4378">
              <tspan
                 x="0 5.0040002 7.506 12.51 17.514"
                 y="0"
                 sodipodi:role="line"
                 id="tspan4380">0.004</tspan>
            </text>
          </g>
          <path
             d="m 603,2053.5 31.5,0 m 2803,0 -31.5,0"
             style="fill:none;stroke:#000000;stroke-width:5;stroke-linecap:butt;stroke-linejoin:miter;stroke-miterlimit:3.79999995;stroke-dasharray:none;stroke-opacity:1"
             id="path4382"
             inkscape:connector-curvature="0" />
          <g
             id="g4384"
             transform="scale(10,10)">
            <text
               transform="matrix(1,0,0,-1,27.3786,202.35)"
               style="font-variant:normal;font-weight:normal;font-size:9px;font-family:Helvetica;-inkscape-font-specification:Helvetica;writing-mode:lr-tb;fill:#000000;fill-opacity:1;fill-rule:nonzero;stroke:none"
               id="text4386">
              <tspan
                 x="0 5.0040002 7.506 12.51 17.514 22.518"
                 y="0"
                 sodipodi:role="line"
                 id="tspan4388">0.0045</tspan>
            </text>
          </g>
          <path
             d="m 603,2249.5 31.5,0 m 2803,0 -31.5,0"
             style="fill:none;stroke:#000000;stroke-width:5;stroke-linecap:butt;stroke-linejoin:miter;stroke-miterlimit:3.79999995;stroke-dasharray:none;stroke-opacity:1"
             id="path4390"
             inkscape:connector-curvature="0" />
          <g
             id="g4392"
             transform="scale(10,10)">
            <text
               transform="matrix(1,0,0,-1,32.3825,221.95)"
               style="font-variant:normal;font-weight:normal;font-size:9px;font-family:Helvetica;-inkscape-font-specification:Helvetica;writing-mode:lr-tb;fill:#000000;fill-opacity:1;fill-rule:nonzero;stroke:none"
               id="text4394">
              <tspan
                 x="0 5.0040002 7.506 12.51 17.514"
                 y="0"
                 sodipodi:role="line"
                 id="tspan4396">0.005</tspan>
            </text>
          </g>
          <path
             d="m 603,288 0,31.5 m 0,1930 0,-31.5"
             style="fill:none;stroke:#000000;stroke-width:5;stroke-linecap:butt;stroke-linejoin:miter;stroke-miterlimit:3.79999995;stroke-dasharray:none;stroke-opacity:1"
             id="path4398"
             inkscape:connector-curvature="0" />
          <g
             id="g4400"
             transform="scale(10,10)">
            <text
               transform="matrix(1,0,0,-1,54.0454,16.8)"
               style="font-variant:normal;font-weight:normal;font-size:9px;font-family:Helvetica;-inkscape-font-specification:Helvetica;writing-mode:lr-tb;fill:#000000;fill-opacity:1;fill-rule:nonzero;stroke:none"
               id="text4402">
              <tspan
                 x="0 5.0040002 10.008"
                 y="0"
                 sodipodi:role="line"
                 id="tspan4404">100</tspan>
            </text>
          </g>
          <path
             d="m 887.5,288 0,15.5 m 0,1946 0,-15.5 M 1054,288 l 0,15.5 m 0,1946 0,-15.5 m 118,-1946 0,15.5 m 0,1946 0,-15.5 m 91.5,-1946 0,15.5 m 0,1946 0,-15.5 m 74.5,-1946 0,15.5 m 0,1946 0,-15.5 m 63.5,-1946 0,15.5 m 0,1946 0,-15.5 m 55,-1946 0,15.5 m 0,1946 0,-15.5 m 48,-1946 0,15.5 m 0,1946 0,-15.5 m 43.5,-1946 0,31.5 m 0,1930 0,-31.5"
             style="fill:none;stroke:#000000;stroke-width:5;stroke-linecap:butt;stroke-linejoin:miter;stroke-miterlimit:3.79999995;stroke-dasharray:none;stroke-opacity:1"
             id="path4406"
             inkscape:connector-curvature="0" />
          <g
             id="g4408"
             transform="scale(10,10)">
            <text
               transform="matrix(1,0,0,-1,146.043,16.8)"
               style="font-variant:normal;font-weight:normal;font-size:9px;font-family:Helvetica;-inkscape-font-specification:Helvetica;writing-mode:lr-tb;fill:#000000;fill-opacity:1;fill-rule:nonzero;stroke:none"
               id="text4410">
              <tspan
                 x="0 5.0040002 10.008 15.012"
                 y="0"
                 sodipodi:role="line"
                 id="tspan4412">1000</tspan>
            </text>
          </g>
          <path
             d="m 1832.5,288 0,15.5 m 0,1946 0,-15.5 m 166,-1946 0,15.5 m 0,1946 0,-15.5 m 118,-1946 0,15.5 m 0,1946 0,-15.5 m 91.5,-1946 0,15.5 m 0,1946 0,-15.5 m 75,-1946 0,15.5 m 0,1946 0,-15.5 m 63.5,-1946 0,15.5 m 0,1946 0,-15.5 m 54.5,-1946 0,15.5 m 0,1946 0,-15.5 m 48.5,-1946 0,15.5 m 0,1946 0,-15.5 m 43,-1946 0,31.5 m 0,1930 0,-31.5"
             style="fill:none;stroke:#000000;stroke-width:5;stroke-linecap:butt;stroke-linejoin:miter;stroke-miterlimit:3.79999995;stroke-dasharray:none;stroke-opacity:1"
             id="path4414"
             inkscape:connector-curvature="0" />
          <g
             id="g4416"
             transform="scale(10,10)">
            <text
               transform="matrix(1,0,0,-1,237.991,16.8)"
               style="font-variant:normal;font-weight:normal;font-size:9px;font-family:Helvetica;-inkscape-font-specification:Helvetica;writing-mode:lr-tb;fill:#000000;fill-opacity:1;fill-rule:nonzero;stroke:none"
               id="text4418">
              <tspan
                 x="0 5.0040002 10.008 15.012 20.016001"
                 y="0"
                 sodipodi:role="line"
                 id="tspan4420">10000</tspan>
            </text>
          </g>
          <path
             d="m 2777,288 0,15.5 m 0,1946 0,-15.5 m 166.5,-1946 0,15.5 m 0,1946 0,-15.5 m 118,-1946 0,15.5 m 0,1946 0,-15.5 m 91.5,-1946 0,15.5 m 0,1946 0,-15.5 m 75,-1946 0,15.5 m 0,1946 0,-15.5 m 63,-1946 0,15.5 m 0,1946 0,-15.5 m 55,-1946 0,15.5 m 0,1946 0,-15.5 m 48.5,-1946 0,15.5 m 0,1946 0,-15.5 m 43,-1946 0,31.5 m 0,1930 0,-31.5"
             style="fill:none;stroke:#000000;stroke-width:5;stroke-linecap:butt;stroke-linejoin:miter;stroke-miterlimit:3.79999995;stroke-dasharray:none;stroke-opacity:1"
             id="path4422"
             inkscape:connector-curvature="0" />
          <g
             id="g4424"
             transform="scale(10,10)">
            <text
               transform="matrix(1,0,0,-1,329.99,16.8)"
               style="font-variant:normal;font-weight:normal;font-size:9px;font-family:Helvetica;-inkscape-font-specification:Helvetica;writing-mode:lr-tb;fill:#000000;fill-opacity:1;fill-rule:nonzero;stroke:none"
               id="text4426">
              <tspan
                 x="0 5.0040002 10.008 15.012 20.016001 25.02"
                 y="0"
                 sodipodi:role="line"
                 id="tspan4428">100000</tspan>
            </text>
          </g>
          <path
             d="m 603,288 2834.5,0 0,1961.5 -2834.5,0 0,-1961.5 z"
             style="fill:none;stroke:#000000;stroke-width:5;stroke-linecap:butt;stroke-linejoin:miter;stroke-miterlimit:3.79999995;stroke-dasharray:none;stroke-opacity:1"
             id="path4430"
             inkscape:connector-curvature="0" />
          <g
             id="g4432"
             transform="scale(10,10)">
            <text
               transform="matrix(0,1,1,0,10.2,99.0902)"
               style="font-variant:normal;font-weight:normal;font-size:9px;font-family:Helvetica;-inkscape-font-specification:Helvetica;writing-mode:lr-tb;fill:#000000;fill-opacity:1;fill-rule:nonzero;stroke:none"
               id="text4434">
              <tspan
                 x="0 5.0040002 10.008 14.508 19.511999 21.51 26.514 29.016001 34.02 36.521999 41.526001 44.522999 47.52 52.523998"
                 y="0"
                 sodipodi:role="line"
                 id="tspan4436">absolute error</tspan>
            </text>
            <text
               transform="matrix(1,0,0,-1,181.494,3.3)"
               style="font-variant:normal;font-weight:normal;font-size:9px;font-family:Helvetica;-inkscape-font-specification:Helvetica;writing-mode:lr-tb;fill:#000000;fill-opacity:1;fill-rule:nonzero;stroke:none"
               id="text4438">
              <tspan
                 x="0 5.0040002 7.506 12.006 17.01 24.507 29.511 31.509001 36.513"
                 y="0"
                 sodipodi:role="line"
                 id="tspan4440"># samples</tspan>
              <tspan
                 x="-24.7582 -19.7542 -17.756201 -13.2562 -8.2522001 -3.7521999 1.2517999 6.2557998 9.2528 14.2568 19.260799 21.258801 23.760799 30.7628 35.7668 40.770802 43.2728 49.770802 51.768799 54.270802 56.268799 61.2728"
                 y="-232.14999"
                 sodipodi:role="line"
                 id="tspan4442">LiveJournal:Geo:Cities</tspan>
              <tspan
                 x="116.3018"
                 y="-211"
                 id="tspan4444">3</tspan>
            </text>
          </g>
          <path
             d="m 3082,2173 247.5,0 m -2726.5,4 55.5,-36 51,-65.5 47.5,-83.5 44,-93.5 41,-97 38.5,-96 35.5,-92.5 34,-87.5 31.5,-80 30,-73.5 28,-66 26.5,-59 25.5,-52 23.5,-46.5 23,-40 22,-35.5 20.5,-31 20,-26.5 19,-23.5 18.5,-20.5 17.5,-18 17.5,-15.5 16.5,-14 16.5,-12 16,-11 16,-10.5 16,-9 15.5,-9 16,-8 16,-8 16,-7.5 16.5,-8 16.5,-7.5 17.5,-7.5 17.5,-8 18,-8 19,-8 19.5,-8 20,-8.5 21,-9 21.5,-9 22,-9.5 23,-9.5 23,-10 24,-10 24.5,-10.5 24.5,-10.5 25.5,-10.5 25.5,-11 25.5,-10.5 25.5,-11 26,-11 25.5,-10.5 25.5,-11 25.5,-10.5 25,-10 24.5,-10 24,-9.5 24,-9 23,-9 22.5,-8.5 21.5,-7.5 21.5,-7.5 20.5,-6.5 20,-6.5 19,-5.5 19,-5.5 18,-4.5 17,-4.5 17,-4 16.5,-3.5 16,-3 16,-3 15.5,-3 15,-2.5 15,-2.5 15.5,-2.5 15,-3 16,-2.5 16,-3 16.5,-3 17.5,-3.5 18.5,-4 20,-4 21,-4.5 23,-5 25.5,-5.5 27.5,-6 30.5,-6 33.5,-7 37,-7 41,-7.5 45.5,-8 50,-8 54.5,-8 60,-8.5 65,-8.5 69.5,-8.5 74,-8"
             style="fill:none;stroke:#ff0000;stroke-width:7.5;stroke-linecap:butt;stroke-linejoin:miter;stroke-miterlimit:3.79999995;stroke-dasharray:none;stroke-opacity:1"
             id="path4446"
             inkscape:connector-curvature="0" />
          <g
             id="g4448"
             transform="scale(10,10)">
            <text
               transform="matrix(1,0,0,-1,297.796,205.3)"
               style="font-variant:normal;font-weight:normal;font-size:9px;font-family:Helvetica;-inkscape-font-specification:Helvetica;writing-mode:lr-tb;fill:#000000;fill-opacity:1;fill-rule:nonzero;stroke:none"
               id="text4450">
              <tspan
                 x="0"
                 y="0"
                 id="tspan4452">5</tspan>
            </text>
          </g>
          <path
             d="m 3082,2083 247.5,0 M 603,1597.5 l 55.5,-104 51,-87 47.5,-71.5 44,-58 41,-47.5 38.5,-38 35.5,-31 34,-26 31.5,-22 30,-19.5 28,-17.5 26.5,-16.5 25.5,-15 23.5,-14 23,-13.5 22,-13 20.5,-12 20,-11 19,-11 18.5,-9.5 17.5,-9 17.5,-8.5 16.5,-8 16.5,-7 16,-7 16,-6.5 16,-6.5 15.5,-6 16,-6.5 16,-7 16,-7 16.5,-8 16.5,-8 17.5,-9 17.5,-10 18,-10.5 19,-11.5 19.5,-12 20,-13 21,-13.5 21.5,-14 22,-15 23,-15 23,-16 24,-15.5 24.5,-16 24.5,-15.5 25.5,-16 25.5,-15 25.5,-15 25.5,-14.5 26,-14 25.5,-13.5 25.5,-12.5 25.5,-12 25,-11 24.5,-10 24,-9.5 24,-8.5 23,-8 22.5,-7 21.5,-6.5 21.5,-6 20.5,-5 20,-5 19,-4 19,-3.5 18,-3.5 17,-3 17,-3 16.5,-2.5 16,-2 16,-2 15.5,-2 15,-1.5 15,-1.5 15.5,-1 15,-1 16,-1 16,-0.5 16.5,-0.5 77,0 23,-0.5 25.5,0 27.5,-0.5 30.5,-1 33.5,-2 37,-3 41,-4 45.5,-5.5 50,-8 54.5,-10.5 60,-13 65,-17 69.5,-20.5 74,-26"
             style="fill:none;stroke:#00ff00;stroke-width:7.5;stroke-linecap:butt;stroke-linejoin:miter;stroke-miterlimit:3.79999995;stroke-dasharray:none;stroke-opacity:1"
             id="path4454"
             inkscape:connector-curvature="0" />
          <g
             id="g4456"
             transform="scale(10,10)">
            <text
               transform="matrix(1,0,0,-1,297.796,196.3)"
               style="font-variant:normal;font-weight:normal;font-size:9px;font-family:Helvetica;-inkscape-font-specification:Helvetica;writing-mode:lr-tb;fill:#000000;fill-opacity:1;fill-rule:nonzero;stroke:none"
               id="text4458">
              <tspan
                 x="0"
                 y="0"
                 id="tspan4460">7</tspan>
            </text>
          </g>
          <path
             d="m 3082,1993 247.5,0 M 603,1827 l 55.5,-135.5 51,-116 47.5,-99 44,-83 41,-69 38.5,-57 35.5,-46.5 34,-37.5 31.5,-30.5 30,-24 28,-19 26.5,-15 25.5,-11.5 23.5,-8.5 23,-7 22,-5.5 20.5,-4.5 20,-3.5 19,-3.5 18.5,-3.5 17.5,-4 17.5,-4.5 16.5,-5 16.5,-6.5 16,-7 16,-8 16,-9.5 15.5,-10 16,-11.5 16,-12.5 16,-13.5 16.5,-14.5 16.5,-15.5 17.5,-16 17.5,-17 18,-17.5 19,-17.5 19.5,-18.5 20,-18.5 21,-18.5 21.5,-18.5 22,-18 23,-18.5 23,-18 24,-17.5 24.5,-17 24.5,-16.5 25.5,-16.5 25.5,-15.5 25.5,-14.5 25.5,-14 26,-13.5 25.5,-13 25.5,-12 25.5,-11 25,-10.5 24.5,-10 24,-9 24,-8.5 23,-7.5 22.5,-7 21.5,-6.5 21.5,-6 20.5,-5 20,-5 19,-4.5 19,-4 18,-3.5 17,-3.5 17,-3.5 16.5,-3 16,-3 16,-3 15.5,-3 15,-3.5 15,-3.5 15.5,-3.5 15,-4 16,-4.5 16,-4.5 16.5,-4.5 17.5,-5.5 18.5,-5 20,-6 21,-5.5 23,-6 25.5,-5.5 27.5,-6 30.5,-5 33.5,-5 37,-4.5 41,-4 45.5,-3.5 50,-2.5 54.5,-1.5 60,-0.5 65,0 69.5,0.5 74,1.5"
             style="fill:none;stroke:#0000ff;stroke-width:7.5;stroke-linecap:butt;stroke-linejoin:miter;stroke-miterlimit:3.79999995;stroke-dasharray:none;stroke-opacity:1"
             id="path4462"
             inkscape:connector-curvature="0" />
          <g
             id="g4464"
             transform="scale(10,10)">
            <text
               transform="matrix(1,0,0,-1,297.796,187.3)"
               style="font-variant:normal;font-weight:normal;font-size:9px;font-family:Helvetica;-inkscape-font-specification:Helvetica;writing-mode:lr-tb;fill:#000000;fill-opacity:1;fill-rule:nonzero;stroke:none"
               id="text4466">
              <tspan
                 x="0"
                 y="0"
                 id="tspan4468">9</tspan>
            </text>
          </g>
          <path
             d="m 3082,1903 247.5,0 M 603,1388 l 55.5,-61 51,-58.5 47.5,-55 44,-50 41,-45.5 38.5,-39.5 35.5,-34 34,-28.5 31.5,-24 30,-19 28,-15 26.5,-12 25.5,-9 23.5,-7 23,-5.5 22,-4.5 20.5,-3.5 20,-3.5 19,-3.5 18.5,-3.5 17.5,-4 17.5,-4 16.5,-5 16.5,-5.5 16,-6 16,-6.5 16,-7 15.5,-7.5 16,-8 16,-8 16,-9 16.5,-8.5 16.5,-9.5 17.5,-9 17.5,-9.5 18,-10 19,-9.5 19.5,-10 20,-10.5 21,-10 21.5,-10.5 22,-10 23,-10.5 23,-11 24,-10.5 24.5,-10.5 24.5,-10.5 25.5,-10.5 25.5,-10 25.5,-10.5 25.5,-10 26,-10 25.5,-9.5 25.5,-9.5 25.5,-9 25,-9 24.5,-8.5 24,-8.5 24,-8 23,-8 22.5,-7.5 21.5,-7.5 21.5,-7 20.5,-7 20,-7 19,-6.5 19,-6.5 18,-6 17,-6.5 17,-6 16.5,-6 16,-5.5 16,-5.5 15.5,-5.5 15,-5 15,-5 15.5,-4.5 15,-4 16,-4 16,-3.5 16.5,-3 17.5,-2.5 18.5,-2.5 20,-2.5 21,-2 23,-1.5 25.5,-2 27.5,-2 30.5,-2 33.5,-3 37,-3 41,-4 45.5,-4.5 50,-5 54.5,-6 60,-6.5 65,-6.5 69.5,-6.5 74,-5.5"
             style="fill:none;stroke:#ff00ff;stroke-width:7.5;stroke-linecap:butt;stroke-linejoin:miter;stroke-miterlimit:3.79999995;stroke-dasharray:none;stroke-opacity:1"
             id="path4470"
             inkscape:connector-curvature="0" />
          <path
             d="m 603,288 2834.5,0 0,1961.5 -2834.5,0 0,-1961.5 z"
             style="fill:none;stroke:#000000;stroke-width:5;stroke-linecap:butt;stroke-linejoin:miter;stroke-miterlimit:3.79999995;stroke-dasharray:none;stroke-opacity:1"
             id="path4472"
             inkscape:connector-curvature="0" />
        </g>
      </g>
    </g>
  </g>
</svg>
